/* XPM */
static char * title_1_active_xpm[] = {
"20 24 129 2",
"  	c None",
". 	c #9B9B9B",
"+ 	c #F1ECED",
"@ 	c #F1EDED",
"# 	c #F1ECEC",
"$ 	c #F1EDEC",
"% 	c #EDE9E9",
"& 	c #EDE8E9",
"* 	c #EDE9E8",
"= 	c #EEE9E9",
"- 	c #EEE9E8",
"; 	c #EAE5E5",
"> 	c #E9E5E6",
", 	c #E9E6E5",
"' 	c #EAE5E6",
") 	c #E9E5E5",
"! 	c #EAE6E5",
"~ 	c #E6E2E1",
"{ 	c #E5E2E2",
"] 	c #E6E2E2",
"^ 	c #E6E1E1",
"/ 	c #E6E1E2",
"( 	c #E2DEDE",
"_ 	c #E2DFDE",
": 	c #E3DFDE",
"< 	c #E2DEDF",
"[ 	c #DEDADA",
"} 	c #DFDBDB",
"| 	c #DEDBDA",
"1 	c #DEDBDB",
"2 	c #DEDADB",
"3 	c #DFDADB",
"4 	c #DFDBDA",
"5 	c #DBD7D7",
"6 	c #DAD7D8",
"7 	c #DAD7D7",
"8 	c #DBD7D8",
"9 	c #DAD8D7",
"0 	c #D7D3D3",
"a 	c #D7D3D4",
"b 	c #D6D4D3",
"c 	c #D6D3D4",
"d 	c #D7D4D4",
"e 	c #D6D4D4",
"f 	c #D6D3D3",
"g 	c #D3D0D0",
"h 	c #CFCDCC",
"i 	c #CFCDCD",
"j 	c #CFCCCD",
"k 	c #CFCCCC",
"l 	c #D0CCCC",
"m 	c #D0CDCD",
"n 	c #D0CDCC",
"o 	c #CBC9C9",
"p 	c #CCC8C9",
"q 	c #CCC9C9",
"r 	c #CBC8C8",
"s 	c #CBC8C9",
"t 	c #CBC9C8",
"u 	c #C8C6C5",
"v 	c #C8C5C5",
"w 	c #C7C5C6",
"x 	c #C7C6C5",
"y 	c #C7C6C6",
"z 	c #C8C5C6",
"A 	c #C8C6C6",
"B 	c #C7C5C5",
"C 	c #C4C2C2",
"D 	c #C4C2C1",
"E 	c #C5C2C2",
"F 	c #C4C1C2",
"G 	c #C0BEBE",
"H 	c #C1BEBF",
"I 	c #C0BEBF",
"J 	c #C1BEBE",
"K 	c #C0BFBE",
"L 	c #C1BFBE",
"M 	c #BCBBBB",
"N 	c #BDBBBB",
"O 	c #BCBABA",
"P 	c #BCBABB",
"Q 	c #BDBABB",
"R 	c #B8B7B7",
"S 	c #B8B8B7",
"T 	c #B9B8B8",
"U 	c #B9B7B7",
"V 	c #B9B8B7",
"W 	c #B9B7B8",
"X 	c #B8B7B8",
"Y 	c #B5B3B3",
"Z 	c #B5B4B4",
"` 	c #B5B4B3",
" .	c #B6B3B4",
"..	c #B6B4B3",
"+.	c #B6B4B4",
"@.	c #B5B3B4",
"#.	c #B1B0B0",
"$.	c #B1B0B1",
"%.	c #B1B1B0",
"&.	c #B2B0B0",
"*.	c #B1B1B1",
"=.	c #AEADAD",
"-.	c #ADACAD",
";.	c #ADADAD",
">.	c #AEACAC",
",.	c #ADADAC",
"'.	c #AEADAC",
").	c #AEACAD",
"!.	c #ADACAC",
"~.	c #AAA9A9",
"{.	c #A9AAA9",
"].	c #A9A9A9",
"^.	c #AAA9AA",
"/.	c #A6A5A5",
"(.	c #A6A5A6",
"_.	c #A6A6A6",
":.	c #A6A6A5",
"<.	c #A7A6A5",
"[.	c #A2A2A2",
"}.	c #A3A2A2",
"|.	c #A2A1A2",
"1.	c #9E9E9E",
"2.	c #9E9F9F",
"3.	c #9F9E9E",
"4.	c #9F9F9F",
"5.	c #9F9E9F",
"6.	c #9E9E9F",
"7.	c #9F9F9E",
"8.	c #9E9F9E",
". . . . . . . . . . . . . . . . . . . . ",
"+ @ + # # $ # # # + @ + $ @ @ $ # $ @ + ",
"% & * % % % * & % * * % & & % = % = - % ",
"; > , ' ) ! ) , , ; ; ; > ' ! > ) ) ) ) ",
"~ { ~ ~ ] ~ { ^ ~ / ] ~ ] ] ] ~ / / { ] ",
"( _ ( ( : ( < ( ( ( ( ( < _ ( ( ( ( < ( ",
"[ } | | | 1 2 3 1 1 | } 1 2 | 4 2 2 1 1 ",
"5 6 7 7 5 6 7 7 7 8 5 7 7 7 9 7 7 5 7 7 ",
"0 a b c d d a d 0 b d a a d e a f d d a ",
"g g g g g g g g g g g g g g g g g g g g ",
"h i j k k l l h l j k h j j h j m k i n ",
"o p o o o o q q q r q o q s q q o t q o ",
"u v w v w x u x v y z v y v A y v u z B ",
"C D C C C E C C E C E D C C C C D F C E ",
"G H G G I J G H J H K G I G J G L I G G ",
"M M N N O N N N N P Q N M Q N M Q N M Q ",
"R S T R U U V U U U U R U W R S X V W W ",
"Y Z Z ` Z  .Z ..` Y +.Z ` Z Z Z @.` Z Z ",
"#.$.#.%.#.#.#.$.&.&.&.#.&.&.#.&.*.&.&.%.",
"=.-.-.;.;.>.-.=.,.'.).>.-.-.=.=.;.!.>.=.",
"~.~.~.~.~.~.~.~.~.{.].~.~.~.].~.~.^.~.~.",
"/.(././._.:.(.<./.:._._._./.(.:.(._././.",
"[.[.}.[.[.}.[.}.}.}.[.}.[.[.[.|.[.}.}.}.",
"1.2.3.4.2.4.5.6.7.8.7.6.8.6.3.2.1.8.4.5."};
