/* XPM */
static char * shade_toggled_active_xpm[] = {
"20 24 32 1",
" 	c None",
".	c #2D2D2D",
"+	c #525252",
"@	c #777777",
"#	c #6E6E6E",
"$	c #3B3B3B",
"%	c #353535",
"&	c #9D9D9D",
"*	c #C5C5C5",
"=	c #C7C7C7",
"-	c #C6C6C6",
";	c #BFBFBF",
">	c #6D6D6D",
",	c #919191",
"'	c #C3C3C3",
")	c #373737",
"!	c #C1C1C1",
"~	c #9B9B9B",
"{	c #4A4A4A",
"]	c #B2B2B2",
"^	c #404040",
"/	c #A8A8A8",
"(	c #ABABAB",
"_	c #454545",
":	c #BABABA",
"<	c #999999",
"[	c #2E2E2E",
"}	c #878787",
"|	c #A9A9A9",
"1	c #A1A1A1",
"2	c #6A6A6A",
"3	c #2F2F2F",
"....................",
"....................",
"....................",
"....................",
"....................",
"....................",
"....................",
"........+@#$........",
"......%&*=-;>.......",
"......,====='+......",
".....)!======~......",
".....{*======]......",
".....^'======/......",
"......(=====->......",
"......_:===-<[......",
".......$}|123.......",
"....................",
"....................",
"....................",
"....................",
"....................",
"....................",
"....................",
"...................."};
